<mxfile host="app.diagrams.net" modified="2023-11-20T13:09:03.818Z" agent="Mozilla/5.0 (Windows NT 10.0; Win64; x64) AppleWebKit/537.36 (KHTML, like Gecko) Chrome/119.0.0.0 Safari/537.36" version="22.1.3" etag="Ly_clLZ_eY9FOy6FC12v" type="github">
  <diagram name="PÃ¡gina-1" id="mGT3WXcDCCSlIX2t3mNP">
    <mxGraphModel>
      <root>
        <mxCell id="0" />
        <mxCell id="1" parent="0" />
      </root>
    </mxGraphModel>
  </diagram>
</mxfile>
